<svg xmlns="http://www.w3.org/2000/svg" id="handshake" width="87.74" height="52.846" viewBox="0 0 87.74 52.846">
    <defs>
        <style>
            .cls-1{fill:#f29f5c}.cls-4{fill:#e59f6a}.cls-9{fill:#ebeef2}
        </style>
    </defs>
    <path id="Path_4079" d="M175.75 138.961l-2.229-18.105-4.176.514-8.1-4.557a4.88 4.88 0 0 0-2.842-.606l-12.785 1.182a4.878 4.878 0 0 0-3.769 2.407l-9.011 15.51a2.143 2.143 0 0 0 1.1 3.082l.369.139a7.993 7.993 0 0 0 2.166.484l-1.142.994-2.284 1.99-6.5 5.542a2.776 2.776 0 0 0-.269 3.917l.659.755a3.568 3.568 0 0 0 5.032.344l2.483 2.848a3.561 3.561 0 0 0 5.032.344l2.48 2.848a3.569 3.569 0 0 0 5.035.346l1.348 1.165a3.569 3.569 0 0 0 5.035.346l1.832-1.6 15.405-12 .017-.015 6.078-.006z" class="cls-1" transform="translate(-104.075 -113.72)"/>
    <path id="Path_4080" fill="#d37d42" d="M169.157 263.946l-.017.015-15.405 12-1.832 1.6a3.569 3.569 0 0 1-5.035-.346l-1.348-1.165a3.569 3.569 0 0 1-5.035-.346L138 272.852a3.561 3.561 0 0 1-5.032-.344l-2.483-2.848a3.567 3.567 0 0 1-4.418.21 2.775 2.775 0 0 0 .22 3.356l.659.755a3.568 3.568 0 0 0 5.032.344l2.483 2.848a3.561 3.561 0 0 0 5.032.344l2.48 2.848a3.569 3.569 0 0 0 5.035.346l1.348 1.165a3.569 3.569 0 0 0 5.035.346l1.832-1.6 15.405-12 .017-.015 6.078-.006-.672-5.462z" transform="translate(-104.084 -235.495)"/>
    <path id="Path_4081" fill="#f9c295" d="M131.457 153.465l-8.254-7.117-2.3-1.978-1.642-1.414-7.061-6.087.816-6.942a4.791 4.791 0 0 0-3.481-5.176l-15.393-4.259a3.562 3.562 0 0 0-4.12 1.809l-1.936 3.779-8.309-.564-2.128 18.118-.925 7.873 8.088.538.017.015 16.9 14.565 1.841 1.589a3.569 3.569 0 0 0 5.033-.374l2.464-2.859a3.569 3.569 0 0 0 5.033-.374l2.465-2.862a3.561 3.561 0 0 0 5.03-.372l2.467-2.862a3.568 3.568 0 0 0 5.03-.372l.655-.759a2.776 2.776 0 0 0-.29-3.915z" transform="translate(-63.579 -117.183)"/>
    <g id="Group_643" transform="translate(38.878 34.114)">
        <path id="Path_4082" d="M255.872 303.051l-2.514-2.168a2.947 2.947 0 0 1-.122 3.7l-.7.805a3.787 3.787 0 0 1-5.34.394l-2.619 3.038a3.78 3.78 0 0 1-5.34.394l-2.616 3.038a3.789 3.789 0 0 1-5.343.4l-2.616 3.036a3.761 3.761 0 0 1-1.795 1.157l1.114.961a3.569 3.569 0 0 0 5.033-.374l2.464-2.859a3.569 3.569 0 0 0 5.033-.374l2.465-2.862a3.561 3.561 0 0 0 5.03-.371l2.467-2.862a3.567 3.567 0 0 0 5.03-.372l.655-.759a2.776 2.776 0 0 0-.286-3.922z" class="cls-4" transform="translate(-226.872 -300.883)"/>
        <path id="Path_4083" d="M337.357 317.052l-4.523-3.9a1.285 1.285 0 1 0-1.679 1.947l4.515 3.893.851-.987a3.558 3.558 0 0 0 1.117.65 1.286 1.286 0 0 0-.281-1.603z" class="cls-4" transform="translate(-312.916 -310.792)"/>
        <path id="Path_4084" d="M296.09 339.326a1.285 1.285 0 0 0-.268-1.624l-4.063-3.5a1.285 1.285 0 0 0-1.679 1.947l4.063 3.5h.005l.839-.975a3.55 3.55 0 0 0 1.103.652z" class="cls-4" transform="translate(-278.88 -328.231)"/>
    </g>
    <g id="Group_644" transform="translate(20.03 2.463)">
        <path id="Path_4085" d="M118.515 299.007l-.979 1.293a3.2 3.2 0 0 0 .619 4.479 3.2 3.2 0 0 0 4.479-.619l.979-1.293a3.2 3.2 0 0 0-.619-4.48 3.2 3.2 0 0 0-4.479.62z" class="cls-1" transform="translate(-116.887 -266.627)"/>
        <path id="Path_4086" d="M149.129 314.874l-1.844 2.435a3.2 3.2 0 0 0 .619 4.48 3.2 3.2 0 0 0 4.479-.619l1.844-2.435a3.2 3.2 0 0 0-.619-4.48 3.2 3.2 0 0 0-4.479.619z" class="cls-1" transform="translate(-141.539 -279.775)"/>
        <path id="Path_4087" d="M179.547 332.249l-2.513 3.318a3.2 3.2 0 0 0 .619 4.48 3.2 3.2 0 0 0 4.48-.619l2.513-3.318a3.2 3.2 0 0 0-.619-4.48 3.2 3.2 0 0 0-4.48.619z" class="cls-1" transform="translate(-166.19 -294.172)"/>
        <path id="Path_4088" d="M209.443 353.655l-2.659 3.51a3.2 3.2 0 0 0 .619 4.48 3.2 3.2 0 0 0 4.479-.619l2.659-3.51a3.2 3.2 0 0 0-.619-4.479 3.2 3.2 0 0 0-4.479.618z" class="cls-1" transform="translate(-190.842 -311.911)"/>
        <path id="Path_4089" d="M202.971 121.367l-8.1-4.557a4.88 4.88 0 0 0-2.842-.606l-12.785 1.182a4.878 4.878 0 0 0-3.769 2.407l-9.011 15.51a2.143 2.143 0 0 0 1.1 3.082l.369.139a8.012 8.012 0 0 0 9.185-2.614l3.452-4.493s8.3 9.609 17.436-1.613" class="cls-1" transform="translate(-157.73 -116.183)"/>
    </g>
    <path id="Path_4090" fill="#5c9cee" d="M416.7 137.341l-4.235-34.4a1.285 1.285 0 0 0-1.432-1.118l-9.9 1.219a4.705 4.705 0 0 0-4.09 5.239l3.4 27.624a4.7 4.7 0 0 0 5.239 4.09l9.9-1.219a1.286 1.286 0 0 0 1.118-1.435z" transform="translate(-328.975 -101.811)"/>
    <path id="Path_4091" fill="#3580d3" d="M431.644 288.579l-.465-3.776a1.343 1.343 0 0 1-.948.58l-10.381 1.278a4.921 4.921 0 0 1-4.813-2.335l.347 2.815a4.7 4.7 0 0 0 5.239 4.09l9.9-1.219a1.285 1.285 0 0 0 1.121-1.433z" transform="translate(-343.914 -253.049)"/>
    <path id="Path_4092" fill="#ed5575" d="M15.58 103.039l-9.9-1.219a1.285 1.285 0 0 0-1.433 1.118L.01 137.34a1.285 1.285 0 0 0 1.119 1.433l9.9 1.219a4.7 4.7 0 0 0 5.239-4.09l3.4-27.624a4.7 4.7 0 0 0-4.088-5.239z" transform="translate(0 -101.81)"/>
    <path id="Path_4093" fill="#cc3a60" d="M.01 288.579l.465-3.779a1.343 1.343 0 0 0 .948.58l10.377 1.281a4.921 4.921 0 0 0 4.813-2.335l-.347 2.815a4.7 4.7 0 0 1-5.239 4.09l-9.9-1.219a1.285 1.285 0 0 1-1.117-1.433z" transform="translate(0 -253.049)"/>
    <g id="Group_645" transform="translate(5.602 27.537)">
        <circle id="Ellipse_784" cx="2.484" cy="2.484" r="2.484" class="cls-9" transform="translate(71.427)"/>
        <circle id="Ellipse_785" cx="2.484" cy="2.484" r="2.484" class="cls-9"/>
    </g>
</svg>
