<svg xmlns="http://www.w3.org/2000/svg" id="rupee" width="79.399" height="72.067" viewBox="0 0 79.399 72.067">
    <defs>
        <style>
            .cls-1{fill:#655e67}.cls-2{fill:#c77e67}.cls-3{fill:#ac583e}.cls-7{fill:#f7e365}.cls-8{fill:#ecc52e}
        </style>
    </defs>
    <path id="Path_4094" d="M262.392 115.982a1.2 1.2 0 0 1-.188-.015 9.625 9.625 0 0 1-4.113-2.043 12.646 12.646 0 0 0-2.148-1.347c-2.359-1.05-4.89-.183-7.523 2.578a1.2 1.2 0 0 1-1.734-1.654c4.244-4.449 7.906-4.148 10.232-3.113a14.618 14.618 0 0 1 2.574 1.592 7.751 7.751 0 0 0 3.084 1.62 1.2 1.2 0 0 1-.185 2.382z" class="cls-1" transform="translate(-208.152 -96.39)"/>
    <path id="Path_4095" d="M263.554 159.2a1.2 1.2 0 0 1-.889-.394c-1.6-1.771-2.221-4.01-2.818-6.175-.155-.561-.3-1.092-.465-1.616a8.33 8.33 0 0 0-4.057-5.018 5.081 5.081 0 0 0-4.228-.1 1.2 1.2 0 0 1-.9-2.222 7.485 7.485 0 0 1 6.151.152 10.639 10.639 0 0 1 5.319 6.47c.175.562.334 1.136.487 1.692.547 1.983 1.064 3.855 2.285 5.2a1.2 1.2 0 0 1-.888 2z" class="cls-1" transform="translate(-210.767 -124.565)"/>
    <path id="Path_4096" d="M125.939 24.919c-1.489-1.31-3.211-1.757-5-.662a3.31 3.31 0 0 1-3.482.118 4.971 4.971 0 0 0-5.209 0 3.31 3.31 0 0 1-3.482-.118c-1.786-1.1-3.509-.648-5 .662-2.334 2.054-3.209 5.452-.382 10.262 2.02 3.438 4.734 5.558 6.97 5.739 1.2 1.505 7.788 1.505 8.992 0 2.236-.181 4.95-2.3 6.97-5.739 2.832-4.81 1.957-8.207-.377-10.262z" class="cls-2" transform="translate(-85.858 -23.639)"/>
    <path id="Path_4097" d="M37.887 166.137h-17.78S0 190.188 0 199.944c0 10.914 9.69 16.162 14.87 16.162h28.254c5.18 0 14.87-5.249 14.87-16.162 0-9.755-20.107-33.807-20.107-33.807z" class="cls-2" transform="translate(0 -144.039)"/>
    <g id="Group_646" transform="translate(17.134)">
        <path id="Path_4098" d="M187.968 24.921c-1.489-1.31-3.211-1.757-5-.662-.114.07-.231.133-.35.19a5.921 5.921 0 0 1 .531.472c2.054 2.054 2.823 5.452.336 10.262-1.778 3.438-4.165 5.558-6.132 5.739a3.612 3.612 0 0 1-2.325 1.009c2.392.325 5.552-.011 6.35-1.009 2.236-.181 4.95-2.3 6.97-5.739 2.829-4.81 1.952-8.208-.38-10.262z" class="cls-3" transform="translate(-165.021 -23.641)"/>
        <path id="Path_4099" d="M219.506 166.137h-4.553s17.691 24.051 17.691 33.807c0 10.914-8.526 16.162-13.083 16.162h5.182c5.18 0 14.87-5.249 14.87-16.162 0-9.756-20.107-33.807-20.107-33.807z" class="cls-3" transform="translate(-198.753 -144.039)"/>
        <path id="Path_4100" d="M134.212 169.833c-1.79-2.28-2.973-3.7-2.973-3.7h-17.78s-1.183 1.416-2.973 3.7z" class="cls-3" transform="translate(-110.486 -144.039)"/>
    </g>
    <path id="Path_4101" fill="#7b3f2c" d="M157.534 87.856a2.7 2.7 0 0 1-2.366-1.313c-.678-.475-1.665-1.8-2.507-5.742a27.382 27.382 0 0 1-.529-3.516 1.2 1.2 0 0 1 2.389-.19A24.942 24.942 0 0 0 155 80.3c.6 2.812 1.263 3.977 1.5 4.232a1.2 1.2 0 0 1 .73.789c.04.137.29.139.3.139s.261 0 .3-.139a1.2 1.2 0 0 1 .73-.789c.236-.255.9-1.42 1.5-4.232a25.415 25.415 0 0 0 .486-3.208 1.2 1.2 0 1 1 2.388.2 27.732 27.732 0 0 1-.531 3.513c-.842 3.944-1.829 5.267-2.507 5.742a2.694 2.694 0 0 1-2.362 1.309z" transform="translate(-128.537 -67.873)"/>
    <path id="Path_4102" fill="#f0e9e6" d="M153.514 258.646h-2.071a5.864 5.864 0 0 0-1.074-2.484h3.145a1.2 1.2 0 0 0 0-2.4H141.4a1.2 1.2 0 0 0 0 2.4h4.206a3.539 3.539 0 0 1 3.374 2.484h-7.58a1.2 1.2 0 1 0 0 2.4h7.533a3.69 3.69 0 0 1-3.476 2.484h-2.487a1.956 1.956 0 0 0-1.532 3.172l7.315 9.208a1.2 1.2 0 0 0 1.876-1.491l-6.748-8.494h1.575a6.1 6.1 0 0 0 5.956-4.881h2.1a1.2 1.2 0 0 0 0-2.4z" transform="translate(-118.46 -218.078)"/>
    <path id="Path_4103" d="M101.565 128.842a3.135 3.135 0 0 0 3.135 3.135h20.223a3.135 3.135 0 0 0 0-6.27H104.7a3.135 3.135 0 0 0-3.135 3.135z" class="cls-1" transform="translate(-85.815 -109.879)"/>
    <path id="Path_4104" fill="#544f56" d="M228.137 125.707h-4.415a3.135 3.135 0 0 1 0 6.27h4.415a3.135 3.135 0 1 0 0-6.27z" transform="translate(-189.028 -109.879)"/>
    <g id="Group_647" transform="translate(37.777 64.321)">
        <path id="Path_4105" d="M268.4 438.407h-20.924a3.873 3.873 0 1 0 0 7.747H268.4a3.873 3.873 0 1 0 0-7.747z" class="cls-7" transform="translate(-243.603 -438.407)"/>
        <path id="Path_4106" d="M379.279 438.407h-4.443a3.873 3.873 0 1 1 0 7.747h4.443a3.873 3.873 0 1 0 0-7.747z" class="cls-8" transform="translate(-354.485 -438.407)"/>
    </g>
    <g id="Group_649" transform="translate(37.777 56.574)">
        <path id="Path_4107" d="M268.4 388.452h-20.924a3.873 3.873 0 1 0 0 7.747H268.4a3.873 3.873 0 0 0 0-7.747z" class="cls-7" transform="translate(-243.603 -388.452)"/>
        <g id="Group_648">
            <path id="Path_4108" d="M268.4 406.259h-20.924a3.874 3.874 0 0 1-3.579-2.391 3.874 3.874 0 0 0 3.579 5.356H268.4a3.874 3.874 0 0 0 3.579-5.356 3.874 3.874 0 0 1-3.579 2.391z" class="cls-8" transform="translate(-243.603 -401.477)"/>
            <path id="Path_4109" d="M379.279 388.452h-4.443a3.873 3.873 0 1 1 0 7.747h4.443a3.873 3.873 0 0 0 0-7.747z" class="cls-8" transform="translate(-354.485 -388.452)"/>
        </g>
    </g>
    <g id="Group_650" transform="translate(61.191 46.201)">
        <path id="Path_4110" d="M412.273 341.622l-10.46-18.122a3.873 3.873 0 1 0-6.709 3.874l10.46 18.118a3.873 3.873 0 0 0 6.709-3.874z" class="cls-7" transform="translate(-394.585 -321.567)"/>
        <path id="Path_4111" d="M459.993 429.928l-2.221-3.848a3.873 3.873 0 0 1-6.709 3.873l2.221 3.848a3.873 3.873 0 0 0 6.709-3.873z" class="cls-8" transform="translate(-442.305 -409.873)"/>
    </g>
</svg>
