<svg xmlns="http://www.w3.org/2000/svg" id="surface1" width="103.841" height="102.134" viewBox="0 0 103.841 102.134">
    <defs>
        <style>
            .cls-1{fill:#ffe7cf}.cls-2{fill:#efd5bd}.cls-3{fill:#344a5d}.cls-6{fill:#fd715c}.cls-7{fill:#d83e3a}.cls-10{fill:#dbd9d1}
        </style>
    </defs>
    <path id="Path_4052" d="M93.726 349.387l-8.051-1.65-4.658 4.825-15.88-12.533 10.59-7.229 11.261-12.323a4.238 4.238 0 0 1 6.714.6l13.342 15.3a4.918 4.918 0 0 1-1.191 7.457l-7.86 4.681a7.312 7.312 0 0 1-4.267.872zm0 0" class="cls-1" transform="translate(-51.926 -254.38)"/>
    <path id="Path_4053" d="M137.176 389.625l-3.255-3.734-13.576 8.09a7.313 7.313 0 0 1-4.269.871l-7.051-.759-6.091 5.231 8.215 6.484 4.657-4.826 8.051 1.651a7.317 7.317 0 0 0 4.268-.871l7.86-4.681a4.918 4.918 0 0 0 1.191-7.456zm0 0" class="cls-2" transform="translate(-82.058 -307.627)"/>
    <path id="Path_4054" d="M172.267 309.619c-1.572-2.438-3.487-1.2-5.058-3.643s.343-3.672-1.229-6.11-3.487-1.2-5.058-3.643.342-3.674-1.23-6.112c-.961-1.49-2.7-4.567-3.762-4.99l-8.484 4.192 14.763 23.287a4.814 4.814 0 0 0 6.655 1.438l2.825-1.82a1.879 1.879 0 0 0 .59-2.576zm0 0" class="cls-3" transform="translate(-117.541 -227.295)"/>
    <path id="Path_4055" d="M92.36 280.583l-6.665 4.117a2.691 2.691 0 0 1-3.7-.877l-3.768-6.107a2.691 2.691 0 0 1 .877-3.7l6.665-4.112a1.666 1.666 0 0 1 2.292.543l4.845 7.852a1.665 1.665 0 0 1-.546 2.284zm0 0" class="cls-3" transform="translate(-62.039 -214.96)"/>
    <path id="Path_4056" fill="#fed066" d="M109.415 82.1l-13.528 8.345a3.787 3.787 0 0 0-1.235 5.212l6.672 10.813a3.788 3.788 0 0 0 5.213 1.234l13.528-8.347 42.79-9.314-25.922-42.012zm0 0" transform="translate(-75.005 -38.29)"/>
    <path id="Path_4057" fill="#f5b556" d="M169.869 206.367L127.3 216.04l-16.752 10.336 3.9 6.317a3.787 3.787 0 0 0 5.212 1.234l13.529-8.347 42.79-9.314zm0 0" transform="translate(-88.127 -164.513)"/>
    <path id="Path_4058" d="M120.063 233.256l-13.529 8.344a3.787 3.787 0 0 1-5.212-1.234l-6.672-10.81a3.787 3.787 0 0 1 1.234-5.212l13.53-8.344zm0 0" class="cls-6" transform="translate(-75.004 -172.189)"/>
    <path id="Path_4059" d="M127.3 254.059L110.547 264.4l3.9 6.317a3.787 3.787 0 0 0 5.212 1.234l6.764-4.174 6.765-4.173zm0 0" class="cls-7" transform="translate(-88.127 -202.532)"/>
    <path id="Path_4060" d="M316.809 77.552l-1.847 1.139a2.036 2.036 0 0 1-2.8-.664l-27.869-45.162a2.036 2.036 0 0 1 .664-2.8l1.847-1.139a2.035 2.035 0 0 1 2.8.664l27.866 45.163a2.037 2.037 0 0 1-.661 2.799zm0 0" class="cls-6" transform="translate(-226.392 -22.815)"/>
    <path id="Path_4061" d="M410.179 226.864l-4.584-7.43-5.313 3.279 4.585 7.43a2.036 2.036 0 0 0 2.8.664l1.847-1.139a2.037 2.037 0 0 0 .665-2.804zm0 0" class="cls-7" transform="translate(-319.098 -174.93)"/>
    <path id="Path_4062" d="M247.113 403.065a3.5 3.5 0 0 0 4.809 1.161l5.1-3.117a3.5 3.5 0 0 0-3.648-5.968l-5.1 3.117a3.5 3.5 0 0 0-1.161 4.807zm0 0" class="cls-1" transform="translate(-196.586 -314.593)"/>
    <path id="Path_4063" d="M258.313 397.279a3.475 3.475 0 0 0-1.7-1.427 3.5 3.5 0 0 1-1.641 3.452l-5.1 3.117a3.49 3.49 0 0 1-3.1.266 3.494 3.494 0 0 0 5.288 2.514l5.1-3.117a3.5 3.5 0 0 0 1.153-4.805zm0 0" class="cls-2" transform="translate(-196.718 -315.568)"/>
    <path id="Path_4064" d="M236.315 369.034a3.55 3.55 0 0 0 4.881 1.179l5.008-3.061a3.55 3.55 0 1 0-3.7-6.057l-5.008 3.061a3.549 3.549 0 0 0-1.181 4.878zm0 0" class="cls-1" transform="translate(-187.972 -287.444)"/>
    <path id="Path_4065" d="M247.5 363.351a3.532 3.532 0 0 0-1.671-1.425 3.547 3.547 0 0 1-1.668 3.476l-5.009 3.061a3.543 3.543 0 0 1-3.211.247 3.547 3.547 0 0 0 5.372 2.581l5.008-3.061a3.551 3.551 0 0 0 1.179-4.879zm0 0" class="cls-2" transform="translate(-188.092 -288.523)"/>
    <path id="Path_4066" d="M217.909 339.355a3.55 3.55 0 0 0 4.881 1.179l5.009-3.062a3.55 3.55 0 0 0-3.7-6.057l-5.008 3.061a3.55 3.55 0 0 0-1.182 4.879zm0 0" class="cls-1" transform="translate(-173.299 -263.784)"/>
    <path id="Path_4067" d="M229.079 333.737a3.531 3.531 0 0 0-1.629-1.409 3.548 3.548 0 0 1-1.674 3.424l-5.008 3.061a3.543 3.543 0 0 1-3.252.23 3.543 3.543 0 0 0 5.376 2.634l5.009-3.061a3.549 3.549 0 0 0 1.178-4.879zm0 0" class="cls-2" transform="translate(-173.401 -264.927)"/>
    <path id="Path_4068" d="M200.559 308.918a3.55 3.55 0 0 0 4.881 1.178l5.009-3.061a3.55 3.55 0 1 0-3.7-6.058l-5.009 3.061a3.55 3.55 0 0 0-1.181 4.88zm0 0" class="cls-1" transform="translate(-159.467 -239.519)"/>
    <path id="Path_4069" d="M211.948 302.785a3.53 3.53 0 0 0-1.988-1.539 3.548 3.548 0 0 1-1.617 3.77l-5.009 3.061a3.537 3.537 0 0 1-2.893.36 3.541 3.541 0 0 0 5.32 2.289l5.008-3.061a3.55 3.55 0 0 0 1.179-4.88zm0 0" class="cls-2" transform="translate(-159.789 -240.149)"/>
    <path id="Path_4070" d="M142.159 310.369l-.928.567a3.061 3.061 0 0 1-4.22-.956l-1.539-2.516a2.639 2.639 0 0 0-3.653-.815c-1.265 9.287-14.463 8.447-14.463 8.447l8.178-12.318a6.577 6.577 0 0 1 2.228-2.294l4.616-2.862a4.7 4.7 0 0 1 6.5 1.45l4.35 7.1a3.064 3.064 0 0 1-1.069 4.197zm0 0" class="cls-1" transform="translate(-93.554 -236.676)"/>
    <path id="Path_4071" d="M178.185 330.226l-.036-.059a3.155 3.155 0 0 1-1.036 1.028l-.929.568a3.06 3.06 0 0 1-4.219-.957l-1.539-2.515a2.639 2.639 0 0 0-3.653-.816 18.372 18.372 0 0 1-5.57 10.183 8.687 8.687 0 0 0 5.57-6.954 2.639 2.639 0 0 1 3.653.815l1.539 2.516a3.061 3.061 0 0 0 4.219.957l.929-.568a3.063 3.063 0 0 0 1.072-4.198zm0 0" class="cls-2" transform="translate(-128.509 -260.73)"/>
    <path id="Path_4072" fill="#cdd6df" d="M93.563 410.367l-13.008-15.459 4.284-3.6a.321.321 0 0 1 .451.039l12.6 14.969a.321.321 0 0 1-.039.451zm0 0" transform="translate(-64.217 -311.883)"/>
    <path id="Path_4073" fill="#96a4aa" d="M121.866 434.3l-6.7-7.964-4.528 3.811 6.907 8.209 4.283-3.6a.32.32 0 0 0 .038-.456zm0 0" transform="translate(-88.198 -339.866)"/>
    <path id="Path_4074" d="M403.225 95.754a1.544 1.544 0 0 1-.81-2.859l8.368-5.147a1.544 1.544 0 0 1 1.618 2.629l-8.368 5.147a1.529 1.529 0 0 1-.808.23zm0 0" class="cls-10" transform="translate(-320.213 -69.769)"/>
    <path id="Path_4075" d="M450.1 173.441c-.05 0-.1 0-.151-.007l-12.268-1.192a1.543 1.543 0 1 1 .3-3.072l12.268 1.192a1.544 1.544 0 0 1-.147 3.08zm0 0" class="cls-10" transform="translate(-347.803 -134.853)"/>
    <path id="Path_4076" d="M368.613 14.576a1.544 1.544 0 0 1-1.438-2.1L371.643.985a1.544 1.544 0 0 1 2.878 1.115l-4.468 11.487a1.545 1.545 0 0 1-1.44.989zm0 0" class="cls-10" transform="translate(-292.623 -.001)"/>
    <path id="Path_4077" fill="#3c5666" d="M30.275 419.584l-14.06-16.493a.338.338 0 0 0-.448-.06L.792 414.851A2.083 2.083 0 0 0 0 416.486v4.809a2.083 2.083 0 0 0 2.084 2.083h24.5a2.086 2.086 0 0 0 1.616-.778l2.057-2.561a.339.339 0 0 0 .018-.455zm0 0" transform="translate(0 -321.244)"/>
    <path id="Path_4078" fill="#194451" d="M84.49 454.137l-6.667-7.821-9.815 11.615h12.786a2.086 2.086 0 0 0 1.624-.778l2.057-2.561a.339.339 0 0 0 .015-.455zm0 0" transform="translate(-54.215 -355.797)"/>
</svg>
